<svg width="197" height="90" viewBox="0 0 197 90" fill="none" xmlns="http://www.w3.org/2000/svg">
<path fill-rule="evenodd" clip-rule="evenodd" d="M75.6186 61.1146C76.5277 63.0742 77.6174 64.8694 78.8878 66.5C83.4212 72.1667 89.9545 75 98.4878 75C103.754 75 108.521 73.7333 112.788 71.2C117.054 68.6667 120.421 64.9333 122.888 60C125.421 55 126.688 49.0667 126.688 42.2C126.688 32.4982 124.621 24.9587 120.487 19.5813C119.585 17.5896 118.494 15.7958 117.213 14.2C112.88 8.73333 106.413 5.99999 97.8132 5.99999C92.5465 5.99999 87.7465 7.23333 83.4132 9.69999C79.1465 12.1 75.7132 15.7333 73.1132 20.6C70.5132 25.4 69.2132 31.2667 69.2132 38.2C69.2132 47.7821 71.3483 55.4203 75.6186 61.1146ZM78.4844 64.2213C82.801 68.0738 88.4773 70 95.5132 70C100.78 70 105.547 68.7333 109.813 66.2C114.08 63.6667 117.447 59.9333 119.913 55C122.447 50 123.713 44.0667 123.713 37.2C123.713 32.2577 123.177 27.8766 122.104 24.0565C124.473 28.787 125.688 34.8153 125.688 42.2C125.688 48.9444 124.444 54.7162 121.996 59.548L121.993 59.5528C119.603 64.3344 116.361 67.9154 112.277 70.3401C108.175 72.7761 103.586 74 98.4878 74C90.201 74 83.9816 71.2634 79.6726 65.8802C79.2569 65.3463 78.8608 64.7934 78.4844 64.2213ZM96.5132 64C100.713 64 103.78 61.8667 105.713 57.6C107.713 53.2667 108.713 46.8333 108.713 38.3C108.713 30.0339 107.937 23.7903 106.386 19.5694C104.642 17.8565 102.376 17 99.5878 17C91.3212 17 87.1878 25.3667 87.1878 42.1C87.1878 50.331 88.0085 56.6944 89.6498 61.19C91.4623 63.0634 93.7501 64 96.5132 64ZM87.8602 58.7734C86.7341 54.4177 86.1878 48.8466 86.1878 42.1C86.1878 33.6832 87.2221 27.2229 89.3913 22.8321C90.4827 20.6227 91.8779 18.9041 93.6035 17.7398C95.336 16.5708 97.3437 16 99.5878 16C101.858 16 103.865 16.5301 105.564 17.632C103.724 13.8773 100.741 12 96.6132 12C88.3465 12 84.2132 20.3667 84.2132 37.1C84.2132 46.0333 85.1799 52.7667 87.1132 57.3C87.3467 57.8216 87.5957 58.3127 87.8602 58.7734Z" fill="#9F224E"/>
<path fill-rule="evenodd" clip-rule="evenodd" d="M163.736 0.899994L174.592 6.47223L178.01 11.7L151.762 61.4052L168.636 60.4L169.636 41.7L180.536 40.8L183.51 45.8V59.4373L193.336 58.9L196.31 63.9V74H183.51V90H171.51L168.536 84.7778V74H138.51L132.336 63.8C138.069 52.9333 147.536 31.9667 160.736 0.899994H163.736ZM136.608 69H168.536V73H139.069L136.608 69ZM174.514 7.69458L176.868 11.7258L150.504 61.4802L145.136 61.8L174.514 7.69458ZM180.536 59.6V42.9677L182.51 46.0897V59.492L180.536 59.6ZM193.336 69V60.7567L195.31 64.1685V73H182.51V89H172.073L169.644 85H180.536V69H193.336Z" fill="#9F224E"/>
<path fill-rule="evenodd" clip-rule="evenodd" d="M31.4 0.899994L42.2563 6.47223L45.6746 11.7L19.4265 61.4052L36.3 60.4L37.3 41.7L48.2 40.8L51.1746 45.8V59.4373L61 58.9L63.9746 63.9V74H51.1746V90H39.1746L36.2 84.7778V74H6.17461L0 63.8C5.73334 52.9333 15.2 31.9667 28.4 0.899994H31.4ZM4.27187 69H36.2V73H6.7334L4.27187 69ZM42.1781 7.69458L44.5318 11.7258L18.1681 61.4802L12.8 61.8L42.1781 7.69458ZM48.2 59.6V42.9677L50.1746 46.0897V59.492L48.2 59.6ZM61 69V60.7567L62.9746 64.1685V73H50.1746V89H39.7373L37.3086 85H48.2V69H61Z" fill="#9F224E"/>
</svg>
